<?xml version="1.0" encoding="utf-8"?>
<!-- Generator: Adobe Illustrator 16.0.0, SVG Export Plug-In . SVG Version: 6.00 Build 0)  -->
<!DOCTYPE svg PUBLIC "-//W3C//DTD SVG 1.1//EN" "http://www.w3.org/Graphics/SVG/1.1/DTD/svg11.dtd">
<svg version="1.1" id="Layer_1" xmlns="http://www.w3.org/2000/svg" xmlns:xlink="http://www.w3.org/1999/xlink" x="0px" y="0px"
	 width="512px" height="512px" viewBox="0 0 512 512" enable-background="new 0 0 512 512" xml:space="preserve">
<g>
	
		<rect x="12.47" y="12.47" fill="none" stroke="#F6F6F6" stroke-width="3.346" stroke-linecap="square" stroke-miterlimit="10" width="487.06" height="487.06"/>
	<polyline fill="none" stroke="#F6F6F6" stroke-width="3.346" stroke-linecap="square" stroke-miterlimit="10" points="
		158.97,107.282 158.97,158.586 219.855,158.586 	"/>
	
		<line fill="none" stroke="#F6F6F6" stroke-width="3.346" stroke-linecap="square" stroke-miterlimit="10" x1="414.68" y1="158.586" x2="414.68" y2="97.703"/>
	
		<line fill="none" stroke="#F6F6F6" stroke-width="3.346" stroke-linecap="square" stroke-miterlimit="10" x1="207.677" y1="61.174" x2="207.677" y2="109.881"/>
	
		<line fill="none" stroke="#F6F6F6" stroke-width="3.346" stroke-linecap="square" stroke-miterlimit="10" x1="365.971" y1="109.88" x2="365.971" y2="158.588"/>
	
		<line fill="none" stroke="#F6F6F6" stroke-width="3.346" stroke-linecap="square" stroke-miterlimit="10" x1="122.442" y1="61.174" x2="61.177" y2="61.174"/>
	
		<line fill="none" stroke="#F6F6F6" stroke-width="3.346" stroke-linecap="square" stroke-miterlimit="10" x1="122.442" y1="109.88" x2="61.177" y2="109.88"/>
	
		<line fill="none" stroke="#F6F6F6" stroke-width="3.346" stroke-linecap="square" stroke-miterlimit="10" x1="122.442" y1="158.586" x2="61.177" y2="158.586"/>
	
		<line fill="none" stroke="#F6F6F6" stroke-width="3.346" stroke-linecap="square" stroke-miterlimit="10" x1="451.207" y1="61.174" x2="378.146" y2="61.174"/>
	
		<line fill="none" stroke="#F6F6F6" stroke-width="3.346" stroke-linecap="square" stroke-miterlimit="10" x1="305.09" y1="450.824" x2="305.09" y2="385.986"/>
	
		<line fill="none" stroke="#F6F6F6" stroke-width="3.346" stroke-linecap="square" stroke-miterlimit="10" x1="341.619" y1="349.455" x2="268.559" y2="349.455"/>
	
		<circle fill="none" stroke="#F6F6F6" stroke-width="3.346" stroke-linecap="square" stroke-miterlimit="10" cx="306.924" cy="252.417" r="49.08"/>
	<path fill="none" stroke="#F6F6F6" stroke-width="3.346" stroke-linecap="square" stroke-miterlimit="10" d="M285.332,61.174
		c-9.307,1.793-18.195,6.295-25.402,13.504c-19.197,19.195-19.197,50.316,0,69.512c19.197,19.195,50.316,19.195,69.51,0"/>
	<path fill="none" stroke="#F6F6F6" stroke-width="3.346" stroke-linecap="square" stroke-miterlimit="10" d="M199.713,349.455
		c-9.307,1.795-18.194,6.297-25.401,13.504c-19.198,19.197-19.198,50.316,0,69.514c19.196,19.193,50.316,19.193,69.51,0"/>
	<path fill="none" stroke="#F6F6F6" stroke-width="3.346" stroke-linecap="square" stroke-miterlimit="10" d="M171.149,258.629
		c0,23.281,18.838,42.119,42.114,42.119"/>
	<path fill="none" stroke="#F6F6F6" stroke-width="3.346" stroke-linecap="square" stroke-miterlimit="10" d="M61.56,203.338h33.692
		c18.6,0,33.678,15.08,33.678,33.678c0,8.862-3.422,16.921-9.019,22.936c-6.145,6.609-14.919,10.742-24.66,10.742"/>
	<path fill="none" stroke="#F6F6F6" stroke-width="3.346" stroke-linecap="square" stroke-miterlimit="10" d="M158.97,203.338
		h33.692c18.604,0,33.682,15.08,33.682,33.678c0,8.862-3.422,16.921-9.019,22.936"/>
	<path fill="none" stroke="#F6F6F6" stroke-width="3.346" stroke-linecap="square" stroke-miterlimit="10" d="M439.033,203.338
		v63.732c0,18.602-15.082,33.678-33.68,33.678c-8.863,0-16.922-3.42-22.939-9.016"/>
	
		<line fill="none" stroke="#F6F6F6" stroke-width="3.346" stroke-linecap="square" stroke-miterlimit="10" x1="61.56" y1="264.219" x2="61.56" y2="300.748"/>
	<path fill="none" stroke="#F6F6F6" stroke-width="3.346" stroke-linecap="square" stroke-miterlimit="10" d="M426.441,355.254
		c-7.729-7.732-20.26-7.732-27.988,0c-7.73,7.725-7.73,20.256,0,27.986l26.73,25.504c9.627,9.631,9.627,25.23,0,34.861
		c-9.627,9.623-25.23,9.623-34.857,0"/>
	
		<line fill="none" stroke="#F6F6F6" stroke-width="3.346" stroke-linecap="square" stroke-miterlimit="10" x1="122.442" y1="349.455" x2="61.177" y2="349.455"/>
	
		<line fill="none" stroke="#F6F6F6" stroke-width="3.346" stroke-linecap="square" stroke-miterlimit="10" x1="122.442" y1="398.16" x2="61.177" y2="398.16"/>
	
		<line fill="none" stroke="#F6F6F6" stroke-width="3.346" stroke-linecap="square" stroke-miterlimit="10" x1="122.442" y1="446.869" x2="61.177" y2="446.869"/>
</g>
</svg>
