<?xml version="1.0" encoding="utf-8"?>
<!-- Generator: Adobe Illustrator 16.0.0, SVG Export Plug-In . SVG Version: 6.00 Build 0)  -->
<!DOCTYPE svg PUBLIC "-//W3C//DTD SVG 1.1//EN" "http://www.w3.org/Graphics/SVG/1.1/DTD/svg11.dtd">
<svg version="1.1" id="Layer_1" xmlns="http://www.w3.org/2000/svg" xmlns:xlink="http://www.w3.org/1999/xlink" x="0px" y="0px"
	 width="512px" height="512px" viewBox="0 256 512 512" enable-background="new 0 256 512 512" xml:space="preserve">
<g>
	<g>
		<polygon fill="#FFFFFF" points="226.45,422.4 154.75,422.4 154.75,360.1 166.75,360.1 166.75,410.4 226.45,410.4 		"/>
		<rect x="405.75" y="350.7" fill="#FFFFFF" width="11.9" height="71.7"/>
		<rect x="202.55" y="314.8" fill="#FFFFFF" width="12" height="59.8"/>
		<rect x="357.95" y="362.6" fill="#FFFFFF" width="11.899" height="59.801"/>
		<g>
			<rect x="58.85" y="314.8" fill="#FFFFFF" width="72.1" height="12"/>
		</g>
		<g>
			<rect x="58.85" y="362.6" fill="#FFFFFF" width="62.5" height="12"/>
		</g>
		<g>
			<rect x="58.85" y="410.4" fill="#FFFFFF" width="72.1" height="12"/>
		</g>
		<rect x="369.85" y="314.8" fill="#FFFFFF" width="83.601" height="12"/>
		<rect x="298.15" y="637.5" fill="#FFFFFF" width="11.9" height="71.7"/>
		<rect x="262.35" y="601.6" fill="#FFFFFF" width="83.601" height="11.9"/>
		<path fill="#FFFFFF" d="M174.35,529.8"/>
		<path fill="#FFFFFF" d="M305.95,566.5c-29.899,0-54.1-24.3-54.1-54.1c0-29.801,24.3-54.101,54.1-54.101s54.101,24.3,54.101,54.101
			C360.051,542.2,335.85,566.5,305.95,566.5z M305.95,470.2c-23.3,0-42.2,18.899-42.2,42.2c0,23.3,18.9,42.199,42.2,42.199
			s42.2-18.899,42.2-42.199C348.15,489.1,329.25,470.2,305.95,470.2z"/>
		<path fill="#FFFFFF" d="M293.95,422.4c-14.5,0-28.101-5.601-38.3-15.9c-21.1-21.1-21.1-55.5,0-76.7c7.7-7.7,17.401-12.8,28-14.9
			l5.9-1.1l2.299,11.7l-5.899,1.1c-8.3,1.6-15.8,5.6-21.8,11.6c-16.5,16.5-16.5,43.3,0,59.8c8,8,18.6,12.4,29.9,12.4
			c11.299,0,21.899-4.4,29.899-12.4l4.2-4.2l8.5,8.4l-4.2,4.2C322.051,416.7,308.45,422.4,293.95,422.4z"/>
		<path fill="#FFFFFF" d="M209.95,709.1c-13.9,0-27.8-5.3-38.3-15.899c-10.2-10.2-15.9-23.9-15.9-38.3
			c0-14.5,5.6-28.101,15.9-38.301c7.7-7.699,17.4-12.8,28-14.899l5.9-1.101l2.3,11.7l-5.9,1.101c-8.3,1.6-15.8,5.6-21.8,11.6
			c-8,8-12.4,18.6-12.4,29.9c0,11.3,4.4,21.899,12.4,29.899c16.5,16.5,43.3,16.5,59.8,0l4.2-4.2l8.4,8.5l-4.2,4.2
			C237.65,703.9,223.85,709.1,209.95,709.1z"/>
		<path fill="#FFFFFF" d="M220.05,565.8h-6c-26.1,0-47.3-21.2-47.3-47.3v-6h12v6c0,19.5,15.9,35.4,35.4,35.4h6V565.8H220.05z"/>
		<path fill="#FFFFFF" d="M98.25,536.3h-6V524.4h6c7.6,0,14.6-3.101,19.8-8.601c4.7-5,7.2-11.6,7.2-18.399
			c0-14.9-12.1-27.101-27.1-27.101h-39v-12h39c21.5,0,39,17.5,39,39c0,9.9-3.7,19.3-10.4,26.601
			C119.45,531.7,109.05,536.3,98.25,536.3z"/>
		<path fill="#FFFFFF" d="M218.35,528.2l-8.7-8.101l4.1-4.399c4.7-5,7.2-11.601,7.2-18.4c0-14.899-12.1-27.1-27.1-27.1h-39v-12h39
			c21.5,0,39,17.5,39,39c0,9.899-3.7,19.3-10.4,26.6L218.35,528.2z"/>
		<path fill="#FFFFFF" d="M402.551,565.8c-9.9,0-19.301-3.7-26.601-10.399l-4.399-4.101l8.1-8.7l4.4,4.101
			c5,4.7,11.6,7.2,18.399,7.2c14.899,0,27.101-12.101,27.101-27.101v-68.5h11.899v68.5C441.551,548.3,424.051,565.8,402.551,565.8z"
			/>
		<rect x="59.15" y="518" fill="#FFFFFF" width="12" height="47.8"/>
		<path fill="#FFFFFF" d="M404.95,713.1c-8.101,0-15.601-3.1-21.3-8.8l-4.2-4.2l8.5-8.5l4.2,4.2c3.4,3.4,8,5.3,12.9,5.3
			c4.899,0,9.399-1.899,12.899-5.3c7.101-7.1,7.101-18.6,0-25.7l-26.3-25.1c-9.9-9.9-9.9-26,0-35.9c9.9-9.899,26-9.899,35.9,0
			l4.199,4.2l-8.4,8.5l-4.199-4.2c-5.2-5.199-13.801-5.199-19,0c-5.2,5.2-5.2,13.7,0,19l26.3,25.101c11.8,11.8,11.8,30.899,0,42.7
			C420.551,709.9,412.95,713.1,404.95,713.1z"/>
		<g>
			<rect x="58.85" y="601.6" fill="#FFFFFF" width="72.1" height="11.9"/>
		</g>
		<g>
			<rect x="58.85" y="649.4" fill="#FFFFFF" width="62.5" height="11.899"/>
		</g>
		<g>
			<rect x="58.85" y="697.2" fill="#FFFFFF" width="72.1" height="11.899"/>
		</g>
	</g>
	<path fill="#FFFFFF" d="M500.95,757H11.05V267h489.9V757z M22.95,745h466V279h-466V745z"/>
</g>
</svg>
