<?xml version="1.0" encoding="utf-8"?>
<!-- Generator: Adobe Illustrator 16.0.0, SVG Export Plug-In . SVG Version: 6.00 Build 0)  -->
<!DOCTYPE svg PUBLIC "-//W3C//DTD SVG 1.1//EN" "http://www.w3.org/Graphics/SVG/1.1/DTD/svg11.dtd">
<svg version="1.1" id="Layer_1" xmlns="http://www.w3.org/2000/svg" xmlns:xlink="http://www.w3.org/1999/xlink" x="0px" y="0px"
	 width="512px" height="512px" viewBox="0 0 512 512" enable-background="new 0 0 512 512" xml:space="preserve">
<g>
	<g>
		<polygon fill="#FFFFFF" points="217.536,173.01 155.995,173.01 155.995,80.697 171.331,80.697 171.331,157.625 217.536,157.625 		
			"/>
	</g>
	<g>
		<rect x="202.151" y="65.312" fill="#FFFFFF" width="15.336" height="61.542"/>
	</g>
	<g>
		<rect x="356.004" y="111.468" fill="#FFFFFF" width="15.336" height="61.542"/>
	</g>
	<g>
		<rect x="63.685" y="65.312" fill="#FFFFFF" width="76.926" height="15.385"/>
	</g>
	<g>
		<rect x="63.685" y="111.468" fill="#FFFFFF" width="61.541" height="15.386"/>
	</g>
	<g>
		<rect x="63.685" y="157.624" fill="#FFFFFF" width="76.926" height="15.386"/>
	</g>
	<g>
		<rect x="63.685" y="342.247" fill="#FFFFFF" width="107.696" height="15.385"/>
	</g>
	<g>
		<rect x="63.685" y="387.036" fill="#FFFFFF" width="92.311" height="15.385"/>
	</g>
	<g>
		<rect x="63.685" y="432.508" fill="#FFFFFF" width="107.696" height="15.386"/>
	</g>
	<g>
		<rect x="402.16" y="96.082" fill="#FFFFFF" width="15.336" height="76.928"/>
	</g>
	<g>
		<rect x="371.39" y="65.312" fill="#FFFFFF" width="76.927" height="15.385"/>
	</g>
	<g>
		<rect x="309.906" y="373.018" fill="#FFFFFF" width="15.335" height="76.927"/>
	</g>
	<g>
		<rect x="279.11" y="342.247" fill="#FFFFFF" width="76.926" height="15.385"/>
	</g>
	<g>
		<rect x="63.734" y="265.321" fill="#FFFFFF" width="15.336" height="46.079"/>
	</g>
	<g>
		<path fill="#FFFFFF" d="M306.707,312.844c-30.581,0-55.462-24.881-55.462-55.462c0-30.583,24.881-55.463,55.462-55.463
			c30.583,0,55.463,24.88,55.463,55.463C362.17,287.963,337.29,312.844,306.707,312.844z M306.707,217.254
			c-22.126,0-40.127,18.001-40.127,40.128c0,22.126,18.001,40.127,40.127,40.127c22.127,0,40.129-18.001,40.129-40.127
			C346.836,235.255,328.834,217.254,306.707,217.254z"/>
	</g>
	<g>
		<path fill="#FFFFFF" d="M186.716,257.382c0,22.126,18.001,40.127,40.128,40.127v15.335c-30.582,0-55.463-24.881-55.463-55.462
			H186.716z"/>
	</g>
	<g>
		<path fill="#FFFFFF" d="M102.111,280.681h-7.656v-15.334h7.656c12.733,0,23.093-10.36,23.093-23.093s-10.359-23.092-23.093-23.092
			H63.684v-15.335h38.428c21.188,0,38.428,17.238,38.428,38.427S123.3,280.681,102.111,280.681z"/>
	</g>
	<g>
		<path fill="#FFFFFF" d="M325.689,147.208c-7.28,7.38-17.389,11.965-28.551,11.965c-22.126,0-40.128-18.001-40.128-40.128
			s18.002-40.127,40.128-40.127c0.131,0,0.259,0.009,0.39,0.01V63.594c-0.131-0.001-0.259-0.01-0.39-0.01
			c-30.581,0-55.462,24.88-55.462,55.462s24.881,55.463,55.462,55.463c15.391,0,29.331-6.305,39.39-16.462L325.689,147.208z"/>
	</g>
	<g>
		<path fill="#FFFFFF" d="M271.285,424.258c-7.281,7.381-17.39,11.966-28.552,11.966c-22.127,0-40.127-18.002-40.127-40.128
			c0-22.127,18-40.128,40.127-40.128c0.13,0,0.259,0.009,0.39,0.011v-15.335c-0.131-0.001-0.26-0.01-0.39-0.01
			c-30.582,0-55.462,24.88-55.462,55.462s24.88,55.463,55.462,55.463c15.39,0,29.332-6.306,39.39-16.463L271.285,424.258z"/>
	</g>
	<g>
		<path fill="#FFFFFF" d="M217.516,242.254c0,6.355-2.581,12.117-6.748,16.298l10.838,10.838
			c6.944-6.956,11.245-16.553,11.245-27.136c0-21.188-17.238-38.427-38.427-38.427h-38.429v15.335h38.429
			C207.157,219.162,217.516,229.521,217.516,242.254z"/>
	</g>
	<g>
		<path fill="#FFFFFF" d="M417.522,203.827v70.59c0,12.733-10.358,23.092-23.092,23.092c-6.714,0-12.765-2.882-16.987-7.471
			l-10.838,10.838c7.005,7.363,16.884,11.968,27.825,11.968c21.188,0,38.428-17.238,38.428-38.427v-70.59H417.522z"/>
	</g>
	<path fill="#FFFFFF" d="M422.891,398.434l0.009-0.009L397.5,374.266c-2.128-2.025-3.3-4.688-3.3-7.499
		c0-5.954,5.27-10.799,11.747-10.799c3.209,0,6.208,1.171,8.443,3.297l3.196,2.94l10.377-11.291l-3.058-2.81
		c-5.092-4.818-11.823-7.471-18.959-7.471c-14.933,0-27.081,11.723-27.081,26.133c0,6.982,2.812,13.526,7.914,18.46l-0.003,0.003
		l0.123,0.117c0.012,0.011,0.021,0.022,0.034,0.034l0.001-0.001l25.358,24.121l-0.008,0.008c3.084,2.934,4.782,6.804,4.782,10.899
		c0,8.605-7.535,15.605-16.798,15.605c-4.56,0-8.827-1.671-11.974-4.664l-6.894-6.657l-10.652,11.03l6.935,6.697
		c6.053,5.758,14.073,8.928,22.585,8.928c17.718,0,32.133-13.879,32.133-30.939C432.403,412.088,429.025,404.287,422.891,398.434z"
		/>
</g>
</svg>
